<svg width="56" height="56" viewBox="0 0 56 56" fill="none" xmlns="http://www.w3.org/2000/svg">
<path d="M25.013 28.5179C24.7974 28.5179 24.5818 28.4324 24.4189 28.2614C24.0931 27.9196 24.0931 27.3615 24.4189 27.0196L31.7249 19.3521C32.0507 19.0102 32.5825 19.0102 32.9082 19.3521L36.7457 23.3794L45.9728 13.6958C46.2986 13.3539 46.8304 13.3539 47.1562 13.6958C47.4819 14.0377 47.4819 14.5958 47.1562 14.9377L37.335 25.2447C37.0092 25.5866 36.4774 25.5866 36.1516 25.2447L32.3142 21.2175L25.6022 28.2614C25.4393 28.4324 25.2238 28.5179 25.0082 28.5179H25.013Z" fill="#00CC76"/>
<path d="M52.8382 6.30994H6.77441V9.12552H52.8382V6.30994Z" fill="#D5FFED"/>
<path d="M52.8572 6.59652H6.75509C5.02081 6.59652 3.6123 5.11833 3.6123 3.29826C3.6123 1.47818 5.0256 0 6.75509 0H52.8572C54.5915 0 56 1.47818 56 3.29826C56 5.11833 54.5915 6.59652 52.8572 6.59652ZM6.75509 1.75974C5.94544 1.75974 5.28909 2.44855 5.28909 3.29826C5.28909 4.14796 5.94544 4.83678 6.75509 4.83678H52.8572C53.6669 4.83678 54.3232 4.14796 54.3232 3.29826C54.3232 2.44855 53.6669 1.75974 52.8572 1.75974H6.75509Z" fill="#00CC76"/>
<path d="M52.613 39.3378H6.99953C6.53482 39.3378 6.16113 38.9456 6.16113 38.4579V5.83731C6.16113 5.34961 6.53482 4.95744 6.99953 4.95744C7.46424 4.95744 7.83792 5.34961 7.83792 5.83731V37.578H51.7746V5.83731C51.7746 5.34961 52.1483 4.95744 52.613 4.95744C53.0777 4.95744 53.4514 5.34961 53.4514 5.83731V38.4579C53.4514 38.9456 53.0777 39.3378 52.613 39.3378Z" fill="#00CC76"/>
<path d="M5.76807 41.7461V32.9424C5.76807 29.2519 8.6234 26.2553 12.1399 26.2553H26.8765C30.3929 26.2553 33.2483 29.2519 33.2483 32.9424V41.7461" fill="#D5FFED"/>
<path d="M33.2483 42.626C32.7836 42.626 32.4099 42.2338 32.4099 41.7461V32.9424C32.4099 29.7396 29.9282 27.1352 26.8765 27.1352H12.1399C9.08813 27.1352 6.60648 29.7396 6.60648 32.9424V41.7461C6.60648 42.2338 6.23279 42.626 5.76808 42.626C5.30337 42.626 4.92969 42.2338 4.92969 41.7461V32.9424C4.92969 28.7693 8.1635 25.3755 12.1399 25.3755H26.8765C30.8529 25.3755 34.0867 28.7693 34.0867 32.9424V41.7461C34.0867 42.2338 33.713 42.626 33.2483 42.626Z" fill="#00CC76"/>
<path d="M24.5434 18.3918C24.5434 15.4757 22.2917 13.1126 19.513 13.1126C16.7344 13.1126 14.4827 15.4757 14.4827 18.3918C14.4827 21.308 16.7344 23.671 19.513 23.671C22.2917 23.671 24.5434 21.308 24.5434 18.3918Z" fill="#D5FFED"/>
<path d="M19.5082 24.5559C16.2744 24.5559 13.6394 21.7906 13.6394 18.3968C13.6394 15.0031 16.2744 12.2377 19.5082 12.2377C22.742 12.2377 25.3769 15.0031 25.3769 18.3968C25.3769 21.7906 22.742 24.5559 19.5082 24.5559ZM19.5082 13.9975C17.1942 13.9975 15.3162 15.9734 15.3162 18.3968C15.3162 20.8203 17.199 22.7962 19.5082 22.7962C21.8174 22.7962 23.7001 20.8203 23.7001 18.3968C23.7001 15.9734 21.8174 13.9975 19.5082 13.9975Z" fill="#00CC76"/>
<path d="M38.1829 51.5403H0.838395C0.373685 51.5403 0 51.1481 0 50.6604V41.9774C0 41.4897 0.373685 41.0975 0.838395 41.0975H38.1829C38.6476 41.0975 39.0213 41.4897 39.0213 41.9774V50.6604C39.0213 51.1481 38.6476 51.5403 38.1829 51.5403ZM1.67679 49.7806H37.3445V42.8572H1.67679V49.7806Z" fill="#00CC76"/>
<path d="M10.5637 42.3897C10.099 42.3897 9.72534 41.9975 9.72534 41.5098V36.3462C9.72534 35.8585 10.099 35.4663 10.5637 35.4663C11.0284 35.4663 11.4021 35.8585 11.4021 36.3462V41.5098C11.4021 41.9975 11.0284 42.3897 10.5637 42.3897Z" fill="#00CC76"/>
<path d="M28.4529 42.3897C27.9882 42.3897 27.6145 41.9975 27.6145 41.5098V36.3462C27.6145 35.8585 27.9882 35.4663 28.4529 35.4663C28.9176 35.4663 29.2913 35.8585 29.2913 36.3462V41.5098C29.2913 41.9975 28.9176 42.3897 28.4529 42.3897Z" fill="#00CC76"/>
<path d="M3.85671 56C3.392 56 3.01831 55.6078 3.01831 55.1201V51.1331C3.01831 50.6454 3.392 50.2532 3.85671 50.2532C4.32142 50.2532 4.6951 50.6454 4.6951 51.1331V55.1201C4.6951 55.6078 4.32142 56 3.85671 56Z" fill="#00CC76"/>
<path d="M35.1648 56C34.7001 56 34.3264 55.6078 34.3264 55.1201V51.1331C34.3264 50.6454 34.7001 50.2532 35.1648 50.2532C35.6295 50.2532 36.0032 50.6454 36.0032 51.1331V55.1201C36.0032 55.6078 35.6295 56 35.1648 56Z" fill="#00CC76"/>
</svg>
