<svg width="205" height="28" viewBox="0 0 205 28" fill="none" xmlns="http://www.w3.org/2000/svg">
<path d="M41.0402 18.58V14.9981H42.4384V18.58H47.5166V19.8329H36.9185V18.58H41.0402ZM45.2296 16.5525V11.016H37.7709V9.73709H46.6641V16.5525H45.2296Z" fill="#595757"/>
<path d="M51.0095 14.5199V13.4489H52.3297V14.5199H55.5107V13.4489H56.8309V14.5199H59.2219V15.7364H48.6238V14.5199H51.0147H51.0095ZM56.6594 18.6944C56.6594 19.0375 56.5867 19.365 56.4411 19.6717C56.2956 19.9785 56.0981 20.2436 55.8486 20.4671C55.6095 20.7011 55.3184 20.883 54.991 21.0234C54.6583 21.1638 54.3101 21.2313 53.9358 21.2313C53.5616 21.2313 53.2133 21.1638 52.8755 21.0234C52.5376 20.883 52.2466 20.7011 51.9971 20.4671C51.758 20.2436 51.5605 19.9785 51.4149 19.6717C51.2694 19.365 51.1966 19.0427 51.1966 18.6944C51.1966 18.3461 51.2694 18.0238 51.4149 17.717C51.5605 17.4103 51.758 17.14 51.9971 16.9112C52.2466 16.6773 52.5376 16.4954 52.8755 16.3602C53.2133 16.225 53.5668 16.1574 53.9358 16.1574C54.3049 16.1574 54.6583 16.225 54.991 16.3602C55.3236 16.4954 55.6095 16.6773 55.8486 16.9112C56.0981 17.1452 56.2956 17.4155 56.4411 17.717C56.5867 18.0238 56.6594 18.3461 56.6594 18.6944ZM56.6334 11.0783C56.6334 11.4215 56.5607 11.749 56.4151 12.0453C56.2696 12.3468 56.0721 12.612 55.8226 12.8459C55.5887 13.0694 55.308 13.2514 54.9806 13.3866C54.6531 13.5269 54.3049 13.5945 53.9358 13.5945C53.5668 13.5945 53.2133 13.5269 52.8807 13.3866C52.548 13.2514 52.2674 13.0694 52.0335 12.8459C51.784 12.612 51.5865 12.3468 51.4409 12.0453C51.2954 11.7438 51.2226 11.4215 51.2226 11.0783C51.2226 10.7352 51.2954 10.4181 51.4409 10.1166C51.5865 9.80987 51.784 9.53954 52.0335 9.3108C52.2674 9.08726 52.548 8.90531 52.8807 8.77014C53.2133 8.62978 53.5616 8.56219 53.9358 8.56219C54.3101 8.56219 54.6531 8.62978 54.9806 8.77014C55.308 8.91051 55.5887 9.08726 55.8226 9.3108C56.0721 9.54474 56.2696 9.81507 56.4151 10.1166C56.5607 10.4233 56.6334 10.7456 56.6334 11.0783ZM55.2664 18.6684C55.2664 18.3045 55.1365 17.9978 54.8714 17.743C54.6063 17.4883 54.2893 17.3635 53.9202 17.3635C53.5512 17.3635 53.2341 17.4883 52.9743 17.743C52.7144 17.9978 52.5844 18.3045 52.5844 18.6684C52.5844 19.0323 52.7144 19.339 52.9743 19.599C53.2341 19.8589 53.546 19.9889 53.9202 19.9889C54.2945 19.9889 54.6063 19.8589 54.8714 19.599C55.1313 19.339 55.2664 19.0323 55.2664 18.6684ZM55.2404 11.0783C55.2404 10.7352 55.1105 10.4337 54.8506 10.1738C54.5907 9.91385 54.2841 9.78388 53.9202 9.78388C53.5564 9.78388 53.2497 9.91385 52.995 10.1738C52.7404 10.4337 52.6156 10.7352 52.6156 11.0783C52.6156 11.4215 52.7456 11.7386 52.995 11.9985C53.2497 12.2584 53.5564 12.3884 53.9202 12.3884C54.2841 12.3884 54.5907 12.2584 54.8506 11.9985C55.1105 11.7386 55.2404 11.4319 55.2404 11.0783Z" fill="#595757"/>
<path d="M70.9998 18.5697V19.8329H60.4017V18.5697H64.9757V15.7884H61.2542V9.64874H62.6887V14.5199H70.3137V15.7884H66.4103V18.5697H70.9998Z" fill="#595757"/>
<path d="M76.92 14.2859V13.2098H73.1984V9.2796H82.1073V10.4961H74.6226V12.0089H82.1333V13.2098H78.3597V14.2859H82.9493V15.5024H72.3512V14.2859H76.9252H76.92ZM80.4752 18.502C80.4752 18.8659 80.3972 19.2091 80.2517 19.5314C80.101 19.8537 79.8983 20.1344 79.6488 20.3632C79.3837 20.6023 79.077 20.7946 78.7392 20.9402C78.3961 21.0806 78.0323 21.1533 77.6477 21.1533C77.263 21.1533 76.894 21.0806 76.5561 20.9402C76.2131 20.7998 75.9116 20.6075 75.6465 20.3632C75.397 20.1292 75.1943 19.8537 75.0436 19.5314C74.8929 19.2091 74.8149 18.8659 74.8149 18.502C74.8149 18.1381 74.8877 17.795 75.0436 17.4727C75.1943 17.1504 75.397 16.8697 75.6465 16.6409C75.9168 16.4018 76.2183 16.2094 76.5561 16.0639C76.894 15.9235 77.2578 15.8507 77.6477 15.8507C78.0375 15.8507 78.4013 15.9235 78.7392 16.0639C79.077 16.2042 79.3837 16.3966 79.6488 16.6409C79.8983 16.8748 80.101 17.1504 80.2517 17.4727C80.4024 17.795 80.4752 18.1381 80.4752 18.502ZM79.0926 18.476C79.0926 18.0809 78.9523 17.743 78.6664 17.4623C78.3805 17.1816 78.0427 17.0412 77.6424 17.0412C77.2422 17.0412 76.9044 17.1816 76.6237 17.4623C76.3378 17.743 76.1975 18.0809 76.1975 18.476C76.1975 18.8711 76.3378 19.2091 76.6237 19.4846C76.9096 19.7601 77.2474 19.9005 77.6424 19.9005C78.0375 19.9005 78.3805 19.7601 78.6664 19.4846C78.9523 19.2091 79.0926 18.8711 79.0926 18.476Z" fill="#595757"/>
<path d="M84.415 16.4382H95.0131V17.7066H90.4236V20.6803H88.989V17.7066H84.415V16.4382ZM86.676 10.8028H92.7418V9.34198H94.1659V14.889H85.2727V9.34198H86.6812V10.8028H86.676ZM92.7418 12.0453H86.676V13.6361H92.7418V12.0453Z" fill="#595757"/>
<path d="M22.604 13.3658C20.1715 11.7126 17.0581 12.3884 15.4208 14.8734C14.0538 16.9528 11.9955 17.2076 11.1951 17.2076C8.59625 17.2076 6.81344 15.3776 6.28847 13.4853C6.28847 13.4853 6.27807 13.4489 6.27288 13.4333C6.27288 13.4126 6.26248 13.3918 6.25728 13.371C6.04938 12.5808 5.9974 12.2013 5.9974 11.3643C5.9974 6.83104 10.6441 1.78834 17.3388 1.78834C24.0334 1.78834 28.1136 7.0078 29.122 9.90345C29.1064 9.85147 29.0908 9.79948 29.07 9.74749C27.1208 4.08095 21.7464 0 15.4156 0C7.44756 0 0.986816 6.46194 0.986816 14.4315C0.986816 21.5537 6.12214 27.6569 13.2482 27.6569C18.9345 27.6569 22.7496 24.4701 24.5064 20.0772C25.468 17.6755 24.7871 14.8526 22.604 13.3658Z" fill="#003668"/>
<path d="M29.2103 10.1842C28.3683 7.35611 24.418 1.78314 17.3387 1.78314C10.6441 1.78314 6.00256 6.82585 6.00256 11.3539C6.00256 12.1961 6.05454 12.5704 6.26245 13.3606C6.17409 13.0123 6.12731 12.6691 6.12731 12.3312C6.12731 7.61604 10.852 4.34608 15.7015 4.34608C22.2714 4.34608 27.599 9.67471 27.599 16.2458C27.599 21.3977 24.6363 25.8582 20.3274 28C25.8786 25.9933 29.8444 20.6751 29.8444 14.4315C29.8444 12.9551 29.6469 11.6502 29.2103 10.1842Z" fill="#E6002D"/>
<path d="M110.416 15.9111C113.177 15.9185 114.928 16.7827 114.942 18.2695C114.928 19.7344 113.177 20.5986 110.416 20.5986C107.662 20.5986 105.919 19.7344 105.919 18.2695C105.919 16.7827 107.662 15.9185 110.416 15.9111ZM104.571 14.5928V13.8311H109.596V11.2529H110.504V13.8311H116.349V14.5928H104.571ZM105.992 9.17285V8.39648H114.811V9.50977C114.811 10.5571 114.811 11.5898 114.459 12.9229L113.551 12.8203C113.902 11.4873 113.902 10.5278 113.902 9.50977V9.17285H105.992ZM106.842 18.2695C106.827 19.229 108.27 19.8516 110.416 19.8516C112.577 19.8516 113.998 19.229 114.005 18.2695C113.998 17.2808 112.577 16.6509 110.416 16.6436C108.27 16.6509 106.827 17.2808 106.842 18.2695ZM121.188 9.59766C121.181 11.5679 122.69 13.2817 124.543 13.9629L124.059 14.6953C122.565 14.1167 121.305 12.9375 120.734 11.4141C120.178 13.04 118.918 14.3145 117.409 14.9297L116.911 14.1973C118.786 13.4795 120.258 11.6558 120.265 9.59766V8.35254H121.188V9.59766ZM118.727 16.9658V16.2041H127.355V20.6426H126.432V16.9658H118.727ZM126.432 15.5303V7.72266H127.355V15.5303H126.432ZM133.396 11.8389C133.396 14.0581 135.169 16.2847 136.985 17.083L136.458 17.8154C134.963 17.1196 133.55 15.5815 132.949 13.7432C132.341 15.6768 130.935 17.3906 129.485 18.1377L128.928 17.4053C130.686 16.541 132.466 14.0801 132.473 11.8389V9.86133H129.324V9.07031H136.589V9.86133H133.396V11.8389ZM138.582 20.6426V7.72266H139.504V20.6426H138.582ZM151.712 7.72266V15.4277H150.789V11.9414H147.992V11.165H150.789V7.72266H151.712ZM141.151 14.5195C143.004 13.8311 144.505 12.0879 144.505 10.1689V9.49512H141.473V8.71875H148.416V9.49512H145.428V10.1543C145.428 11.8901 146.849 13.5015 148.68 14.1387L148.197 14.8857C146.739 14.3438 145.545 13.2231 144.996 11.8389C144.447 13.4136 143.172 14.666 141.634 15.2666L141.151 14.5195ZM143.187 18.2402C143.172 16.7388 144.798 15.8599 147.464 15.8672C150.13 15.8599 151.756 16.7388 151.756 18.2402C151.756 19.749 150.13 20.6133 147.464 20.6279C144.798 20.6133 143.172 19.749 143.187 18.2402ZM144.095 18.2402C144.08 19.2437 145.399 19.8735 147.464 19.8662C149.53 19.8735 150.848 19.2437 150.848 18.2402C150.848 17.2295 149.53 16.6069 147.464 16.5996C145.399 16.6069 144.08 17.2295 144.095 18.2402ZM166.313 9.08496V10.5791C166.313 12.2637 166.313 13.897 165.859 16.2334L164.951 16.1162C165.413 13.8823 165.413 12.2197 165.42 10.5791V9.86133H157.305V9.08496H166.313ZM156.045 18.7236V17.9326H159.092V13.6113H160.015V17.9326H162.329V13.6113H163.237V17.9326H167.822V18.7236H156.045ZM179.986 14.0068V14.7832H176.749V16.5703H178.507V20.6426H177.584V17.3174H169.513V16.5703H171.446V14.7832H168.209V14.0068H179.986ZM169.556 10.4912C169.556 8.9458 171.292 8.0376 174.083 8.04492C176.873 8.0376 178.609 8.9458 178.609 10.4912C178.609 12.0293 176.873 12.9375 174.083 12.9229C171.292 12.9375 169.556 12.0293 169.556 10.4912ZM170.509 10.4912C170.494 11.5312 171.908 12.1904 174.083 12.1904C176.258 12.1904 177.672 11.5312 177.672 10.4912C177.672 9.44385 176.258 8.79199 174.083 8.79199C171.908 8.79199 170.494 9.44385 170.509 10.4912ZM172.369 16.5703H175.841V14.7832H172.369V16.5703ZM190.993 7.72266V20.6426H190.085V7.72266H190.993ZM180.578 17.376C184.123 15.6914 186.02 13.0474 186.254 9.90527H181.149V9.14355H187.184C187.177 12.791 185.331 16.0869 181.09 18.1377L180.578 17.376ZM199.67 8.7334V9.39258C199.663 10.2056 199.663 11.4946 199.319 13.2158L198.396 13.1426C198.733 11.4873 198.755 10.3301 198.762 9.52441H193.298V8.7334H199.67ZM192.493 14.5049C193.364 14.5049 194.353 14.4976 195.393 14.4683V11.5605H196.301V14.439C197.788 14.3804 199.319 14.2778 200.71 14.0801L200.769 14.7832C198.059 15.23 194.917 15.2812 192.595 15.2812L192.493 14.5049ZM194.514 20.335V16.5703H195.437V19.5586H202.996V20.335H194.514ZM201.648 17.4639V7.72266H202.571V12.0146H204.563V12.8057H202.571V17.4639H201.648Z" fill="black" fill-opacity="0.7"/>
</svg>
